<?xml version="1.0" encoding="UTF-8"?>
<svg width="285px" height="286px" viewBox="0 0 285 286" version="1.1" xmlns="http://www.w3.org/2000/svg" xmlns:xlink="http://www.w3.org/1999/xlink">
    <title>polyicon copy</title>
    <g id="Main" stroke="none" stroke-width="1" fill="none" fill-rule="evenodd">
        <g id="Desktop-HD" transform="translate(-977.000000, -2907.000000)" fill="#E5F0EE" fill-rule="nonzero">
            <g id="benefits" transform="translate(127.000000, 2057.000000)">
                <g id="Group-3" transform="translate(800.000000, 800.000000)">
                    <g id="polyicon-copy" transform="translate(50.000000, 50.000000)">
                        <path d="M122.120838,127.82392 L11.3841459,127.82392 C5.17461176,127.82392 0,122.874509 0,116.935216 C0,110.995923 5.17461176,106.046512 11.3841459,106.046512 L122.120838,106.046512 C128.330372,106.046512 133.504983,110.995923 133.504983,116.935216 C133.504983,122.874509 128.330372,127.82392 122.120838,127.82392 Z" id="Path"></path>
                        <path d="M122.120838,78.5880399 L11.3841459,78.5880399 C5.17461176,78.5880399 0,73.6386288 0,67.6993355 C0,61.7600423 5.17461176,56.8106312 11.3841459,56.8106312 L122.120838,56.8106312 C128.330372,56.8106312 133.504983,61.7600423 133.504983,67.6993355 C133.504983,73.6386288 128.330372,78.5880399 122.120838,78.5880399 Z" id="Path"></path>
                        <path d="M122.120838,26.5116279 L11.3841459,26.5116279 C5.17461176,26.5116279 0,21.5622169 0,15.6229236 C0,9.68363032 5.17461176,4.73421927 11.3841459,4.73421927 L122.120838,4.73421927 C128.330372,4.73421927 133.504983,9.68363032 133.504983,15.6229236 C133.504983,21.5622169 128.330372,26.5116279 122.120838,26.5116279 Z" id="Path"></path>
                        <path d="M274.528644,281.212625 L162.867873,281.212625 C156.664497,281.212625 151.495017,276.263214 151.495017,270.32392 C151.495017,264.384627 156.664497,259.435216 162.867873,259.435216 L273.494748,259.435216 C279.698124,259.435216 284.867604,264.384627 284.867604,270.32392 C285.9015,276.263214 280.73202,281.212625 274.528644,281.212625 Z" id="Path"></path>
                        <path d="M274.528644,229.136213 L162.867873,229.136213 C156.664497,229.136213 151.495017,224.186802 151.495017,218.247508 C151.495017,212.308215 156.664497,207.358804 162.867873,207.358804 L273.494748,207.358804 C279.698124,207.358804 284.867604,212.308215 284.867604,218.247508 C285.9015,224.186802 280.73202,229.136213 274.528644,229.136213 Z" id="Path"></path>
                        <path d="M274.528644,179.900332 L162.867873,179.900332 C156.664497,179.900332 151.495017,174.950921 151.495017,169.011628 C151.495017,163.072335 156.664497,158.122924 162.867873,158.122924 L273.494748,158.122924 C279.698124,158.122924 284.867604,163.072335 284.867604,169.011628 C285.9015,174.950921 280.73202,179.900332 274.528644,179.900332 Z" id="Path"></path>
                        <path d="M118.828904,285.946844 C112.88961,285.946844 107.940199,280.812037 107.940199,274.650268 L107.940199,163.738436 C107.940199,157.576668 112.88961,152.44186 118.828904,152.44186 C124.768197,152.44186 129.717608,157.576668 129.717608,163.738436 L129.717608,273.623307 C129.717608,280.812037 124.768197,285.946844 118.828904,285.946844 Z" id="Path"></path>
                        <path d="M67.6993355,285.946844 C61.7600423,285.946844 56.8106312,280.812037 56.8106312,274.650268 L56.8106312,163.738436 C56.8106312,157.576668 61.7600423,152.44186 67.6993355,152.44186 C73.6386288,152.44186 78.5880399,157.576668 78.5880399,163.738436 L78.5880399,273.623307 C78.5880399,280.812037 73.6386288,285.946844 67.6993355,285.946844 Z" id="Path"></path>
                        <path d="M16.5697674,285.946844 C10.6304742,285.946844 5.68106312,280.812037 5.68106312,274.650268 L5.68106312,163.738436 C5.68106312,157.576668 10.6304742,152.44186 16.5697674,152.44186 C22.5090607,152.44186 27.4584718,157.576668 27.4584718,163.738436 L27.4584718,273.623307 C27.4584718,280.812037 22.5090607,285.946844 16.5697674,285.946844 Z" id="Path"></path>
                        <path d="M270.32392,133.504983 C264.384627,133.504983 259.435216,128.370176 259.435216,122.208408 L259.435216,11.2965755 C259.435216,5.13480705 264.384627,0 270.32392,0 C276.263214,0 281.212625,5.13480705 281.212625,11.2965755 L281.212625,121.181446 C281.212625,128.370176 276.263214,133.504983 270.32392,133.504983 Z" id="Path"></path>
                        <path d="M219.194352,133.504983 C213.255059,133.504983 208.305648,128.370176 208.305648,122.208408 L208.305648,11.2965755 C208.305648,5.13480705 213.255059,0 219.194352,0 C225.133645,0 230.083056,5.13480705 230.083056,11.2965755 L230.083056,121.181446 C230.083056,128.370176 225.133645,133.504983 219.194352,133.504983 Z" id="Path"></path>
                        <path d="M169.011628,133.504983 C163.072335,133.504983 158.122924,128.370176 158.122924,122.208408 L158.122924,11.2965755 C158.122924,5.13480705 163.072335,0 169.011628,0 C174.950921,0 179.900332,5.13480705 179.900332,11.2965755 L179.900332,121.181446 C179.900332,128.370176 174.950921,133.504983 169.011628,133.504983 Z" id="Path"></path>
                    </g>
                </g>
            </g>
        </g>
    </g>
</svg>